<?xml version="1.0" encoding="UTF-8" standalone="no"?>
<!-- Created with Inkscape (http://www.inkscape.org/) -->

<svg
   xmlns:dc="http://purl.org/dc/elements/1.1/"
   xmlns:cc="http://creativecommons.org/ns#"
   xmlns:rdf="http://www.w3.org/1999/02/22-rdf-syntax-ns#"
   xmlns:svg="http://www.w3.org/2000/svg"
   xmlns="http://www.w3.org/2000/svg"
   xmlns:sodipodi="http://sodipodi.sourceforge.net/DTD/sodipodi-0.dtd"
   xmlns:inkscape="http://www.inkscape.org/namespaces/inkscape"
   width="101.27345"
   height="113.58903"
   id="svg4393"
   version="1.1"
   inkscape:version="0.48.4 r9939"
   sodipodi:docname="New document 4">
  <defs
     id="defs4395" />
  <sodipodi:namedview
     id="base"
     pagecolor="#ffffff"
     bordercolor="#666666"
     borderopacity="1.0"
     inkscape:pageopacity="0.0"
     inkscape:pageshadow="2"
     inkscape:zoom="0.49497475"
     inkscape:cx="137.43102"
     inkscape:cy="68.850287"
     inkscape:document-units="px"
     inkscape:current-layer="layer1"
     showgrid="false"
     fit-margin-top="0"
     fit-margin-left="0"
     fit-margin-right="0"
     fit-margin-bottom="0"
     inkscape:window-width="1920"
     inkscape:window-height="987"
     inkscape:window-x="-2"
     inkscape:window-y="35"
     inkscape:window-maximized="1" />
  <metadata
     id="metadata4398">
    <rdf:RDF>
      <cc:Work
         rdf:about="">
        <dc:format>image/svg+xml</dc:format>
        <dc:type
           rdf:resource="http://purl.org/dc/dcmitype/StillImage" />
        <dc:title></dc:title>
      </cc:Work>
    </rdf:RDF>
  </metadata>
  <g
     inkscape:label="Layer 1"
     inkscape:groupmode="layer"
     id="layer1"
     transform="translate(-244.49704,-603.62851)">
    <g
       transform="matrix(4.0509378,0,0,4.0509378,2336.074,-1117.6041)"
       id="g4387">
      <path
         style="fill:#5c5c5c;fill-opacity:1;stroke:none"
         d="m -507.05357,424.89732 c -3.94296,0 -7.125,3.18205 -7.125,7.125 l 0,2.5625 3.03125,0 0,-1.125 c 0,-2.70596 2.2003,-4.90625 4.90625,-4.90625 l 4.375,0 c 2.70595,0 4.875,2.20029 4.875,4.90625 l 0,1.125 3.53125,0 0,-2.5625 c 0,-3.94295 -3.18204,-7.125 -7.125,-7.125 l -6.46875,0 z"
         id="path4389"
         inkscape:connector-curvature="0" />
      <path
         style="fill:#5c5c5c;fill-opacity:1;stroke:none"
         d="m -513.5692,435.25 c -1.51986,0 -2.75,1.23014 -2.75,2.75 l 0,12.1875 c 0,1.51986 1.23014,2.75 2.75,2.75 l 19.5,0 c 1.51985,0 2.75,-1.23014 2.75,-2.75 l 0,-12.1875 c 0,-1.51986 -1.23015,-2.75 -2.75,-2.75 l -19.5,0 z m 9.75,5.5625 c 0.85806,0 1.5625,0.82757 1.5625,1.875 0,0.68554 -0.30354,1.29182 -0.75,1.625 l 0.0625,0.15625 0.875,2.90625 -1.75,0 -1.75,0 0.875,-2.90625 0.0625,-0.15625 c -0.44376,-0.3339 -0.75,-0.94194 -0.75,-1.625 0,-1.04743 0.70444,-1.875 1.5625,-1.875 z"
         id="path4391"
         inkscape:connector-curvature="0" />
    </g>
  </g>
</svg>
